PathFileType	4	(X/Y/Z)	/Users/visionmauri/2_8_1_f_Sports2D/2_8_1_f_Sports2D_px_person00.trc
DataRate	CameraRate	NumFrames	NumMarkers	Units	OrigDataRate	OrigDataStartFrame	OrigNumFrames
30.0	30.0	7	22	m	30.0	306	350
Frame#	Time	Hip			RHip			RKnee			RAnkle			RBigToe			RSmallToe			RHeel			LHip			LKnee			LAnkle			LBigToe			LSmallToe			LHeel			Neck			Head			Nose			RShoulder			RElbow			RWrist			LShoulder			LElbow			LWrist			
		X1	Y1	Z1	X2	Y2	Z2	X3	Y3	Z3	X4	Y4	Z4	X5	Y5	Z5	X6	Y6	Z6	X7	Y7	Z7	X8	Y8	Z8	X9	Y9	Z9	X10	Y10	Z10	X11	Y11	Z11	X12	Y12	Z12	X13	Y13	Z13	X14	Y14	Z14	X15	Y15	Z15	X16	Y16	Z16	X17	Y17	Z17	X18	Y18	Z18	X19	Y19	Z19	X20	Y20	Z20	X21	Y21	Z21	X22	Y22	Z22
306	10.229226361031518	521.6023470286725	794.292384174601	0.0	447.62891429300305	825.2332297743962	0.0	460.6744201226123	1123.7011542854787	0.0	494.54754594180406	1392.0491431948474	0.0	483.63909374346105	1507.0323131259304	0.0	439.6086061104966	1495.6601840277503	0.0	520.7650989914109	1429.5064071027946	0.0	602.8178461000676	816.7943556540046	0.0	635.0357701243117	1104.7040345474616	0.0	663.3554929369812	1410.2202705800144	0.0	667.8284639021251	1530.8439055439285	0.0	715.2717501357757	1520.1253212664305	0.0	644.7422543995993	1453.931746005316	0.0	478.01464130175407	333.5399774278747	0.0	494.23388275658505	154.70157867324005	0.0	509.9187089391806	289.74335112452434	0.0	333.54425936289255	396.483145304547	0.0	291.73918213301005	596.3517694474788	0.0	262.5123228767386	748.6401635177001	0.0	617.531091767748	371.4720494906258	0.0	726.2798056975973	560.3074701944613	0.0	806.5638898213303	709.6199697898016	0.0
307	10.262655205348615	521.4460442053775	796.2521103106185	0.0	447.7139312787177	822.9975394937815	0.0	461.78784241696485	1124.40277589061	0.0	494.5095784691589	1392.132782721012	0.0	484.2414682655977	1506.8590842735198	0.0	440.4986028461975	1495.5849988089221	0.0	521.6610701848803	1429.9608656948467	0.0	603.0207194234624	815.5521189294799	0.0	634.7180447211122	1106.181836379119	0.0	662.905102129213	1413.6126672382563	0.0	667.8729783762534	1534.5656212436731	0.0	715.5003214291096	1524.4778289043902	0.0	646.1920204327618	1458.9113544127429	0.0	478.59703786279545	332.81632805947436	0.0	494.34842183669565	154.72998308113134	0.0	510.7972551356857	293.15946331724996	0.0	333.0691135011046	396.0191603190881	0.0	291.320115318824	596.1970726402405	0.0	262.5473283784317	748.1892258360108	0.0	618.8730156719396	370.1218260490321	0.0	727.0315328161653	560.3658972443536	0.0	807.0137369945297	710.2289322961512	0.0
308	10.296084049665712	521.7810137076806	795.0464592205287	0.0	447.6291776407842	821.0574232835721	0.0	462.64707088450467	1124.002958814216	0.0	494.2808988517964	1391.2733835384936	0.0	484.6690218653943	1505.0720177219544	0.0	441.0892198541194	1494.9403645571206	0.0	521.6667630114623	1430.9821513709655	0.0	603.6485994947004	812.1925950006975	0.0	633.3391046320796	1105.8212378746769	0.0	662.3171526441824	1417.043679819686	0.0	665.026324597343	1537.7575615099092	0.0	714.596823822972	1528.923731335313	0.0	647.025331116781	1463.7922278694657	0.0	478.8965617529661	332.804951970091	0.0	494.25173089018386	153.70798779444735	0.0	511.18391252165037	293.5379152682877	0.0	333.3542502761815	394.30483962985005	0.0	290.9365075651128	593.7331370821089	0.0	263.0875377356749	743.9212771028252	0.0	620.3490644566893	369.8069297258845	0.0	728.0669874979961	561.17312422965	0.0	807.9619981172375	710.4704077001686	0.0
309	10.329512893982809	521.1285887765255	792.5643068205824	0.0	446.46382977626666	822.4769957466856	0.0	463.03636790259276	1123.9245348861234	0.0	494.17462086402304	1390.423232186699	0.0	485.1962347055126	1502.756455405102	0.0	441.33598389770157	1492.8879964711928	0.0	521.4299032387808	1432.0599867306457	0.0	603.2121472315935	811.6079777458634	0.0	631.5472744850208	1105.3425591729185	0.0	660.9284427033067	1420.1030736198327	0.0	661.8218536718472	1539.333422839897	0.0	712.5795493587733	1531.0620685785912	0.0	645.4582825710208	1466.6208531318389	0.0	479.30885027438944	333.312729738999	0.0	494.1624177411912	152.82392753759373	0.0	510.40424469660974	287.9134795641956	0.0	334.6509357403539	392.7889348358694	0.0	291.154860591623	592.5533451876158	0.0	263.2942259293548	739.2119907628264	0.0	622.1382888044794	370.5169679804384	0.0	729.4185231525635	563.9189155205968	0.0	808.2848094838267	711.5424274231327	0.0
310	10.362941738299904	519.6966691925991	792.6628714032887	0.0	444.7547949344559	825.8576150952043	0.0	462.86043662708033	1124.6433940684194	0.0	494.2113755334863	1390.1803201083019	0.0	485.476094020998	1502.0087166843366	0.0	441.0596621663753	1490.8925575031303	0.0	520.9991813811994	1432.5420293766779	0.0	601.1545044143869	813.9505214503591	0.0	629.7977897156301	1107.0894516544347	0.0	658.4201102117436	1425.9510008034238	0.0	659.370207892984	1544.1764775529061	0.0	709.46632676025	1535.4723686570103	0.0	641.1498969910396	1471.9407528309828	0.0	480.0398348266655	333.72598233339073	0.0	494.48324039723775	151.16456388711327	0.0	509.28170040920844	280.87159867663667	0.0	336.5307523778206	391.54237934644306	0.0	292.1916266414124	592.500490085518	0.0	262.4405132478661	738.3942294521812	0.0	623.6204032480355	371.1787435548094	0.0	731.6548575268502	567.7286103918583	0.0	809.4748916429309	714.5229181815447	0.0
311	10.396370582617001	518.5139990481938	796.4914021741961	0.0	443.9817039854892	827.8960329645414	0.0	461.83471462726953	1125.7707592046308	0.0	494.4460318668644	1390.0081736443203	0.0	485.71588993703085	1504.2876873746602	0.0	440.5936607000542	1491.357884975786	0.0	519.7896939920965	1431.7005180758606	0.0	599.2623814324361	816.3943434561894	0.0	627.6397439913796	1111.781210786222	0.0	654.7576309842809	1435.8029921817297	0.0	655.589772971958	1555.2869593858522	0.0	705.2508514357305	1545.4709458422815	0.0	634.9459420917939	1482.830417972185	0.0	480.8376062384762	333.6824045466708	0.0	495.5282206819055	148.01834323969805	0.0	508.7716843363703	278.67048488081986	0.0	338.59197436481605	389.71046636919306	0.0	293.15618588574597	592.2563006371856	0.0	261.1166290792691	740.5997609130393	0.0	624.3651446401186	371.2533767644254	0.0	734.762104537309	571.2678336028484	0.0	813.5728626716899	720.4838794159896	0.0
312	10.429799426934098	518.1191695277579	800.5711909018905	0.0	444.2963477278779	828.5935447192841	0.0	459.5366585352562	1127.7636686652206	0.0	495.09653582190685	1389.2833067818462	0.0	486.5314653469463	1508.5745097906545	0.0	440.6687682818138	1494.0492054471713	0.0	518.6061298093297	1429.7704391161737	0.0	599.1716276683296	818.5118596818331	0.0	624.5357555996256	1118.3288516515352	0.0	650.138876016076	1445.4278601679082	0.0	648.3787650038533	1567.4890960782973	0.0	699.5354139601155	1557.0272722478508	0.0	629.0376101318435	1494.6139740266635	0.0	482.0448906054705	333.3902435822825	0.0	496.31248242324455	145.20314349267176	0.0	508.8540452260084	279.6131672345375	0.0	340.59255200115126	388.01313137630177	0.0	293.26966985028076	593.7182633616396	0.0	260.4205387565895	743.9408786602647	0.0	625.8732209920356	371.6804340651266	0.0	737.4655743912713	573.8589656281798	0.0	818.7377317446341	727.4593789127263	0.0
